<svg width="487.5" height="71.302" viewBox="0 0 487.5 71.302"
    xmlns="http://www.w3.org/2000/svg">
    <g id="svgGroup" stroke-linecap="round" fill-rule="evenodd" font-size="9pt" stroke="#ffffff" stroke-width="0" fill="#ffffff" style="stroke:#ffffff;stroke-width:0;fill:#ffffff">
        <path d="M 62.3 0 L 40.3 48.7 L 18.3 0 L 0 0 L 0 70 L 14.6 70 L 14.6 25.1 L 35.1 70 L 44.9 70 L 65.5 24.9 L 65.5 70 L 80.1 70 L 80.1 0 L 62.3 0 Z M 187.3 42.9 L 187.3 70 L 201.9 70 L 201.9 39.5 A 26.545 26.545 0 0 0 200.567 30.839 C 198.05 23.541 192.087 19.3 183.7 19.3 A 19.651 19.651 0 0 0 177.84 20.136 A 15.806 15.806 0 0 0 169.1 26.9 L 169.1 20.6 L 154.5 20.6 L 154.5 70 L 169.1 70 L 169.1 43.8 A 15.367 15.367 0 0 1 169.745 39.219 C 171.033 35.096 174.165 32.71 178.373 32.7 A 11.141 11.141 0 0 1 178.4 32.7 A 9.832 9.832 0 0 1 182.45 33.489 C 185.488 34.851 187.185 37.937 187.294 42.43 A 19.242 19.242 0 0 1 187.3 42.9 Z M 394.5 49.3 L 430.8 49.3 A 14.433 14.433 0 0 0 430.873 48.681 C 430.942 47.984 430.998 47.018 431 45.783 A 43.126 43.126 0 0 0 431 45.7 C 431 30.2 420.7 19.3 405.8 19.3 A 25.475 25.475 0 0 0 388.687 25.609 C 383.996 29.778 380.929 35.746 380.314 42.696 A 29.546 29.546 0 0 0 380.2 45.3 A 27.217 27.217 0 0 0 383.856 59.333 C 387.507 65.472 393.682 69.65 401.402 70.905 A 31.14 31.14 0 0 0 406.4 71.3 A 29.278 29.278 0 0 0 416.295 69.679 A 22.991 22.991 0 0 0 429.3 58.2 L 417 53.3 A 13.346 13.346 0 0 1 413.219 57.481 C 412.138 58.211 410.888 58.739 409.388 59.032 A 15.547 15.547 0 0 1 406.4 59.3 A 12.574 12.574 0 0 1 397.776 55.968 A 10.349 10.349 0 0 1 394.5 49.3 Z M 336.7 0 L 313 0 L 313 70 L 336.7 70 A 35.122 35.122 0 0 0 372.282 36.149 A 36.19 36.19 0 0 0 372.3 35 A 35.066 35.066 0 0 0 338.072 0.025 A 37.497 37.497 0 0 0 336.7 0 Z M 454 70 L 467.4 70 L 487.5 20.6 L 472.5 20.6 L 460.9 51.8 L 449.3 20.6 L 433.9 20.6 L 454 70 Z M 216 6.1 L 216 20.6 L 209 20.6 L 209 32.6 L 216 32.6 L 216 53.8 A 22.206 22.206 0 0 0 217.127 61.1 C 219.056 66.652 223.379 70.072 229.462 70.965 A 22.978 22.978 0 0 0 232.8 71.2 A 32.093 32.093 0 0 0 236.053 71.042 C 239.044 70.738 241.275 70.025 243 69.2 L 243 56.6 C 241.4 57.7 239.5 58.1 237.6 58.1 A 11.112 11.112 0 0 1 234.818 57.79 C 231.907 57.034 230.5 54.846 230.5 50.7 L 230.5 32.6 L 243 32.6 L 243 20.6 L 230.5 20.6 L 230.5 6.1 L 216 6.1 Z M 91 45.3 A 25.692 25.692 0 0 0 112.952 70.905 A 29.58 29.58 0 0 0 117.8 71.3 A 27.494 27.494 0 0 0 134.515 65.86 A 25.469 25.469 0 0 0 144.6 45.3 A 25.692 25.692 0 0 0 122.648 19.695 A 29.58 29.58 0 0 0 117.8 19.3 A 27.494 27.494 0 0 0 101.085 24.74 A 25.469 25.469 0 0 0 91 45.3 Z M 248.5 45.3 A 25.692 25.692 0 0 0 270.452 70.905 A 29.58 29.58 0 0 0 275.3 71.3 A 27.494 27.494 0 0 0 292.015 65.86 A 25.469 25.469 0 0 0 302.1 45.3 A 25.692 25.692 0 0 0 280.148 19.695 A 29.58 29.58 0 0 0 275.3 19.3 A 27.494 27.494 0 0 0 258.585 24.74 A 25.469 25.469 0 0 0 248.5 45.3 Z M 336.3 55.9 L 328 55.9 L 328 14.1 L 336.3 14.1 C 347.9 14.1 356.9 23.4 356.9 35 A 20.916 20.916 0 0 1 348.942 51.594 A 20.4 20.4 0 0 1 336.3 55.9 Z M 109.427 35.92 A 12.774 12.774 0 0 0 105.4 45.3 A 13.464 13.464 0 0 0 105.402 45.549 A 12.522 12.522 0 0 0 117.8 58 A 12.226 12.226 0 0 0 126.173 54.68 A 12.774 12.774 0 0 0 130.2 45.3 A 13.464 13.464 0 0 0 130.198 45.051 A 12.522 12.522 0 0 0 117.8 32.6 A 12.226 12.226 0 0 0 109.427 35.92 Z M 266.927 35.92 A 12.774 12.774 0 0 0 262.9 45.3 A 13.464 13.464 0 0 0 262.902 45.549 A 12.522 12.522 0 0 0 275.3 58 A 12.226 12.226 0 0 0 283.673 54.68 A 12.774 12.774 0 0 0 287.7 45.3 A 13.464 13.464 0 0 0 287.698 45.051 A 12.522 12.522 0 0 0 275.3 32.6 A 12.226 12.226 0 0 0 266.927 35.92 Z M 416.7 39.8 L 394.6 39.8 C 395.1 35.1 399.9 30.7 405.7 30.7 A 12.125 12.125 0 0 1 411.099 31.899 A 10.116 10.116 0 0 1 416.7 39.8 Z"/>
    </g>
</svg>